/* XPM */
static const char * anglemeter32_xpm[] = {
"32 32 4 1",
" 	c #000000",
".	c #FFFFFF",
"+	c #51CE44",
"@	c #D91516",
"                                ",
"                                ",
"                                ",
"                                ",
"                                ",
"................................",
".                              .",
".               .              .",
".               .              .",
".  .            .           .  .",
".   .                      .   .",
".       +   @                  .",
".        +   @                 .",
".         +  @                 .",
".          +  @                .",
".           +  @               .",
".            + @               .",
".             + @              .",
".              +@              .",
".               +@             .",
".                              .",
".                              .",
".                              .",
".                              .",
"................................",
"                                ",
"                                ",
"                                ",
"                                ",
"                                ",
"                                ",
"                                "};
