/* XPM */
static const char * anglemeter16_xpm[] = {
"16 16 14 1",
" 	c #000000",
".	c #878787",
"+	c #8F8F8F",
"@	c #787878",
"#	c #FFFFFF",
"$	c #808080",
"%	c #15FD11",
"&	c #D91516",
"*	c #020101",
"=	c #000100",
"-	c #143311",
";	c #830D0E",
">	c #4A3816",
",	c #010000",
"                ",
"                ",
".++++++++++++++.",
"@       #      @",
"$#      #     #$",
"$ # % &*     # $",
"$  =-%;&       $",
"$   =-%&       $",
"$    =%>&      $",
"$     =%&      $",
"$      = ,     $",
"@              @",
".++++++++++++++.",
"                ",
"                ",
"                "};
