/* XPM */
static const char * levelmeter32_xpm[] = {
"32 32 4 1",
" 	c #000000",
".	c #FFFFFF",
"+	c #F46026",
"@	c #26F448",
"                                ",
"                                ",
"                                ",
"                                ",
"         . . .                  ",
"                                ",
"              ++++++            ",
"              ++++++            ",
"         . . .++++++            ",
"              @@@@@@            ",
"              @@@@@@            ",
"              @@@@@@            ",
"         . . .@@@@@@            ",
"              @@@@@@            ",
"              @@@@@@            ",
"              @@@@@@            ",
"         . . .@@@@@@            ",
"              @@@@@@            ",
"              @@@@@@            ",
"              @@@@@@            ",
"         . . .@@@@@@            ",
"              @@@@@@            ",
"              @@@@@@            ",
"              @@@@@@            ",
"         . . .@@@@@@            ",
"              @@@@@@            ",
"              @@@@@@            ",
"              @@@@@@            ",
"         . . .@@@@@@            ",
"              @@@@@@            ",
"                                ",
"                                "};
