/* XPM */
static const char * levelmeter16_xpm[] = {
"16 16 21 1",
" 	c #000000",
".	c #010101",
"+	c #515151",
"@	c #484848",
"#	c #494848",
"$	c #010000",
"%	c #FF6D2C",
"&	c #FF6628",
"*	c #FF6C2B",
"=	c #3F3D44",
"-	c #8DAC31",
";	c #8DAA37",
">	c #96B53A",
",	c #29FF4D",
"'	c #26F448",
")	c #28FF4C",
"!	c #453843",
"~	c #1FFA44",
"{	c #22FF48",
"]	c #2BFF51",
"^	c #000100",
"                ",
"       .        ",
"    +@#   $     ",
"       %&*      ",
"    +@=-;>      ",
"       ,')      ",
"    +@!~')      ",
"       ,')      ",
"    +@!~')      ",
"       ,')      ",
"    +@!~')      ",
"       ,')      ",
"    +@!~')      ",
"       ,')      ",
"    +@!{)]      ",
"      ^   ^     "};
