/* XPM */
static const char * wmbutton32_xpm[] = {
"32 32 190 2",
"  	c None",
". 	c #000000",
"+ 	c #EDECE8",
"@ 	c #EBEAE6",
"# 	c #ECEAE7",
"$ 	c #EAE9E5",
"% 	c #ECEAE6",
"& 	c #EAE8E4",
"* 	c #E9E7E3",
"= 	c #E7E5E1",
"- 	c #E7E5E0",
"; 	c #E6E4DF",
"> 	c #E6E3DF",
", 	c #E5E3DE",
"' 	c #E6E3DE",
") 	c #E5E4DF",
"! 	c #E4E2DD",
"~ 	c #E3E1DB",
"{ 	c #E2DFDA",
"] 	c #E0DDD8",
"^ 	c #DEDBD5",
"/ 	c #DDD9D3",
"( 	c #D9D6CF",
"_ 	c #D6D2CA",
": 	c #D0CCC5",
"< 	c #EBE9E6",
"[ 	c #EBE9E5",
"} 	c #E9E7E2",
"| 	c #E2E0DA",
"1 	c #E1DED9",
"2 	c #E0DED8",
"3 	c #E0DDD7",
"4 	c #DFDCD7",
"5 	c #DEDAD4",
"6 	c #DDDAD4",
"7 	c #DBD8D1",
"8 	c #DAD6D0",
"9 	c #D8D4CC",
"0 	c #D4D0C8",
"a 	c #CECAC2",
"b 	c #C7C3BD",
"c 	c #EDEBE8",
"d 	c #E4E1DC",
"e 	c #E3E0DB",
"f 	c #DFDCD6",
"g 	c #DEDBD4",
"h 	c #DDDAD3",
"i 	c #DCD9D2",
"j 	c #DCD9D3",
"k 	c #DCD8D2",
"l 	c #DBD8D2",
"m 	c #DAD7D0",
"n 	c #D9D5CF",
"o 	c #D8D4CD",
"p 	c #D6D3CB",
"q 	c #D5D2CA",
"r 	c #D2CEC6",
"s 	c #CBC7C0",
"t 	c #C5C2BB",
"u 	c #BCBAB4",
"v 	c #E8E6E2",
"w 	c #E4E2DE",
"x 	c #E1DFD9",
"y 	c #DAD7D1",
"z 	c #D9D5CE",
"A 	c #D8D5CE",
"B 	c #D7D3CC",
"C 	c #D5D1C9",
"D 	c #D1CDC5",
"E 	c #C4C1BB",
"F 	c #BDBAB4",
"G 	c #B6B4AE",
"H 	c #E9E8E4",
"I 	c #D7D4CC",
"J 	c #D7D3CB",
"K 	c #D6D2CB",
"L 	c #D5D1CA",
"M 	c #D4D0C9",
"N 	c #CCC8C1",
"O 	c #C8C5BE",
"P 	c #C1BEB8",
"Q 	c #B9B7B1",
"R 	c #B3B1AC",
"S 	c #D7D4CD",
"T 	c #D3CFC7",
"U 	c #D2CEC7",
"V 	c #CDC9C2",
"W 	c #C9C6BF",
"X 	c #BFBCB6",
"Y 	c #B8B5B0",
"Z 	c #B1AEAA",
"` 	c #ECEBE7",
" .	c #E7E4E0",
"..	c #E3E1DC",
"+.	c #D3CFC8",
"@.	c #D0CCC4",
"#.	c #CDCAC2",
"$.	c #C4C1BA",
"%.	c #BCB9B3",
"&.	c #B5B2AD",
"*.	c #ADABA7",
"=.	c #DFDDD7",
"-.	c #D3D0C8",
";.	c #D0CDC5",
">.	c #CFCBC3",
",.	c #CCC9C1",
"'.	c #CAC7BF",
").	c #C2BFB8",
"!.	c #BBB8B2",
"~.	c #ADABA6",
"{.	c #E5E3DF",
"].	c #E2E0DB",
"^.	c #DAD6CF",
"/.	c #CAC6BE",
"(.	c #7F7D78",
"_.	c #9B9892",
":.	c #CAC6BF",
"<.	c #BAB7B1",
"[.	c #ADAAA6",
"}.	c #C0BCB5",
"|.	c #61605C",
"1.	c #B7B4AD",
"2.	c #D1CDC6",
"3.	c #C9C5BE",
"4.	c #C1BEB7",
"5.	c #B4B1AC",
"6.	c #ACAAA6",
"7.	c #C3C0B8",
"8.	c #87847F",
"9.	c #C6C3BC",
"0.	c #C0BDB7",
"a.	c #95938D",
"b.	c #B0ADA6",
"c.	c #CECBC3",
"d.	c #CBC8C1",
"e.	c #C2BEB8",
"f.	c #BAB7B2",
"g.	c #DBD7D1",
"h.	c #CFCBC4",
"i.	c #CECAC3",
"j.	c #C9C5BF",
"k.	c #C6C2BC",
"l.	c #ACAAA5",
"m.	c #E2DFD9",
"n.	c #C2BFB9",
"o.	c #B7B5B0",
"p.	c #B2AFAA",
"q.	c #ABA9A4",
"r.	c #CFCCC4",
"s.	c #CCC9C2",
"t.	c #C5C1BB",
"u.	c #BCB9B4",
"v.	c #B6B3AE",
"w.	c #B0AEA9",
"x.	c #A8A6A2",
"y.	c #DEDBD6",
"z.	c #CBC8C0",
"A.	c #C7C3BC",
"B.	c #BEBBB6",
"C.	c #B9B6B1",
"D.	c #B3B0AC",
"E.	c #A4A29F",
"F.	c #C8C4BE",
"G.	c #C7C4BD",
"H.	c #B5B3AD",
"I.	c #AFADA8",
"J.	c #A3A19E",
"K.	c #C8C4BD",
"L.	c #C0BEB7",
"M.	c #C1BDB7",
"N.	c #BEBBB5",
"O.	c #B7B4AF",
"P.	c #AEACA8",
"Q.	c #A7A6A2",
"R.	c #A4A39F",
"S.	c #A6A3A0",
"T.	c #C3C0B9",
"U.	c #B8B6B0",
"V.	c #B6B4AF",
"W.	c #B7B4AE",
"X.	c #B3B0AB",
"Y.	c #B2B0AB",
"Z.	c #A5A4A0",
"`.	c #A4A29E",
" +	c #AFACA8",
".+	c #AEABA7",
"++	c #ABA9A5",
"@+	c #A9A8A3",
"#+	c #A5A3A0",
"$+	c #A3A29E",
"                                                                ",
"                                                                ",
"                                                                ",
"                                                                ",
"                                                                ",
". . . . . . . . . . . . . . . . . . . . . . . . . . . . . . . . ",
". + @ # $ % % & * = - ; > > > > , ; ' ) , ! ! ~ { ] ^ / ( _ : . ",
". + < @ [ } = , ! { | { 1 1 2 2 1 2 2 ] ] 3 4 5 6 7 8 9 0 a b . ",
". c < < = d e ] f g 6 h i j j k i i i l 7 7 m n o p q r s t u . ",
". c [ v w x f 6 j y 8 ( z ( z z z n A z o o B _ C 0 D s E F G . ",
". c H ; | f / 7 8 z A I B B J J J B K J p p L M r : N O P Q R . ",
". c v ! ] 6 k 8 A S B _ K C C C C L L _ 0 T T U D V W t X Y Z . ",
". `  ...3 j m z o B _ C 0 T +.+.T 0 M C U r D @.#.s b $.%.&.*.. ",
". #  .e =.i m o B _ L C T T T -.T T r 0 T r ;.>.,.'.b ).!.&.~.. ",
". # {.].f k ^.o B K C T T T /.(._.T T T T r @.>.#.:.t P <.&.[.. ",
". @ - e f 7 m A p q M T U T }.|.1.T T T r 2.D V ,.3.t 4.<.5.6.. ",
". @ ; e f i m o J K C 0 r T a 7.8.T T T r D D >.,.W 9.0.!.5.6.. ",
". ` - e f k m o p _ 0 0 T T D a.b.T 0 T T r @.c.d.3.9.e.f.5.6.. ",
". @ , { f g.( B p L 0 T T T T U T T r r U 2.h.i.N j.k.0.<.5.l.. ",
". [ , m.5 g.( B L C -.r T D @.: 2.2.D r : h.a N s 3.n.X o.p.q.. ",
". & ! ] / ( o _ M r r : c.i.h.c.>.h.>.r.c.,.s.W O t.P u.v.w.x.. ",
". v { y.7 o K 0 r : i.N ,.z.z.N N N V N s s O A.$.).B.C.D.6.E.. ",
".  .] j ( _ T D i.d.:.F.O 9.G.G.b b G.O A.9.E n.0.F C.H.I.x.J.. ",
". ].j ^.L @.#.W K.$.n.P 0.0.0.P L.M.0.0.X X N.%.Q O.R P.Q.R.S.. ",
". f B -.i.b T.X F f.<.U.V.v.v.v.W.v.v.H.v.&.X.Y.I.~.Q.Z.`.`.E.. ",
". m D '.n.F Q &.Y.w. +.+++[.[.*.6.++l.++++@+x.x.#+#+R.E.$+J.E.. ",
". . . . . . . . . . . . . . . . . . . . . . . . . . . . . . . . ",
"                                                                ",
"                                                                ",
"                                                                ",
"                                                                ",
"                                                                "};
