/* XPM */
static const char * wmbutton16_xpm[] = {
"16 16 82 1",
" 	c None",
".	c #000000",
"+	c #EBE9E6",
"@	c #E8E6E1",
"#	c #E4E1DC",
"$	c #E1DED8",
"%	c #E0DDD7",
"&	c #DEDCD6",
"*	c #DEDBD5",
"=	c #DEDCD5",
"-	c #DEDAD4",
";	c #DCD8D2",
">	c #DAD6CF",
",	c #D6D2CB",
"'	c #CCC9C1",
")	c #E8E7E2",
"!	c #E2DFDA",
"~	c #DDDAD4",
"{	c #DAD7D0",
"]	c #D8D5CE",
"^	c #D8D4CD",
"/	c #D8D4CC",
"(	c #D7D4CC",
"_	c #D6D2CA",
":	c #D3CFC7",
"<	c #CCC8C1",
"[	c #BFBCB6",
"}	c #E6E3DF",
"|	c #DEDBD6",
"1	c #DAD6D0",
"2	c #D4D0C9",
"3	c #D4D0C8",
"4	c #D5D1CA",
"5	c #D2CEC6",
"6	c #CECAC2",
"7	c #C6C3BC",
"8	c #BAB7B2",
"9	c #E4E2DD",
"0	c #D9D5CE",
"a	c #BCB8B1",
"b	c #C5C1BA",
"c	c #D0CCC4",
"d	c #CBC8C0",
"e	c #C4C0BA",
"f	c #B8B5AF",
"g	c #E5E2DD",
"h	c #D9D6CF",
"i	c #D2CEC7",
"j	c #ACAAA3",
"k	c #B9B6AE",
"l	c #CAC7C0",
"m	c #C3C0B9",
"n	c #B7B4AF",
"o	c #C3BFB8",
"p	c #CAC6BF",
"q	c #CFCBC4",
"r	c #CAC6C0",
"s	c #E3E0DB",
"t	c #CFCCC4",
"u	c #D0CCC5",
"v	c #CECBC3",
"w	c #C8C4BE",
"x	c #C0BCB7",
"y	c #B4B1AC",
"z	c #DFDCD7",
"A	c #CBC7C0",
"B	c #C9C6BF",
"C	c #C9C5BE",
"D	c #C5C2BC",
"E	c #C1BEB7",
"F	c #B9B6B1",
"G	c #AEABA7",
"H	c #D8D4CE",
"I	c #CECAC4",
"J	c #BDBAB4",
"K	c #BBB8B3",
"L	c #BCB8B2",
"M	c #BBB8B2",
"N	c #B8B5B0",
"O	c #B3B1AC",
"P	c #ABAAA6",
"Q	c #A5A39F",
"                ",
"                ",
"                ",
"................",
".+@#$%&*=*-;>,'.",
".)!~{]^/^/(_:<[.",
".}|1^_2334:5678.",
".9-0,2:ab:5cdef.",
".g~h,3ijk:5clmn.",
".9~]_3:op:5qren.",
".s;/35ctucv<wxy.",
".z]3qABBprCDEFG.",
".HI7EJKKLM8NOPQ.",
"................",
"                ",
"                "};
