/* XPM */
static const char * wmipeditpnl16_xpm[] = {
"16 16 4 1",
" 	c #000000",
".	c #FFFFFF",
"+	c #010101",
"@	c #020202",
"                ",
"                ",
"                ",
"                ",
"                ",
" ... ... ... ...",
" . . . . . . . .",
" ... ... ... ...",
"+      @      + ",
"                ",
"                ",
"                ",
"                ",
"                ",
"                ",
"                "};
