/* XPM */
static const char * wmkeyboard32_xpm[] = {
"32 32 5 1",
" 	c #D4D0C8",
".	c #404040",
"+	c #FFFFFF",
"@	c #808080",
"#	c #000000",
"               .               .",
" +++++++++++++@. +++++++++++++@.",
" +            @. +            @.",
" +            @. +            @.",
" +            @. +            @.",
" + ##  #  ##  @. +   #####    @.",
" + ## ### ##  @. +   ##       @.",
" + ## ### ##  @. +   ##       @.",
" + ## # # ##  @. +   #####    @.",
" +  ### ###   @. +   ##       @.",
" +  ### ###   @. +   ##       @.",
" +  ##   ##   @. +   #####    @.",
" +            @. +            @.",
" +            @. +            @.",
" @@@@@@@@@@@@@@. @@@@@@@@@@@@@@.",
"................................",
"     .               .          ",
"++++@. +++++++++++++@. +++++++++",
"    @. +            @. +        ",
"    @. +            @. +        ",
"    @. +            @. +        ",
"#   @. +    ###     @. +   #####",
"#   @. +   ##  #    @. +   ##  #",
"##  @. +   ###      @. +   ##   ",
"##  @. +    ###     @. +   ##   ",
"### @. +     ###    @. +   ##   ",
" ## @. +   #  ##    @. +   ##  #",
" ## @. +    ###     @. +   #####",
"    @. +            @. +        ",
"    @. +            @. +        ",
"@@@@@. @@@@@@@@@@@@@@. @@@@@@@@@",
"................................"};
