/* XPM */
static const char * wmkeyboard16_xpm[] = {
"16 16 73 1",
" 	c #FFFFFF",
".	c #92908A",
"+	c #C1BDB6",
"@	c #AFACA5",
"#	c #A09D97",
"$	c #CFCBC3",
"%	c #888681",
"&	c #7E7E7E",
"*	c #D4D0C8",
"=	c #AAA7A1",
"-	c #888580",
";	c #B5B2AB",
">	c #808080",
",	c #41403D",
"'	c #807E79",
")	c #484744",
"!	c #20201F",
"~	c #A6A39D",
"{	c #1E1D1C",
"]	c #605E5A",
"^	c #333230",
"/	c #706E6A",
"(	c #ACA9A2",
"_	c #76746F",
":	c #53524E",
"<	c #181817",
"[	c #161615",
"}	c #656460",
"|	c #54524F",
"1	c #31302E",
"2	c #ABA8A2",
"3	c #0F0F0E",
"4	c #302F2D",
"5	c #52514E",
"6	c #8A8782",
"7	c #5A5855",
"8	c #C7C3BB",
"9	c #D1CDC5",
"0	c #D2CEC6",
"a	c #0E0E0D",
"b	c #666460",
"c	c #000000",
"d	c #BFBCB4",
"e	c #10100F",
"f	c #242322",
"g	c #8D8A85",
"h	c #9E9B95",
"i	c #CDC9C2",
"j	c #8B8883",
"k	c #B9B6AF",
"l	c #93908B",
"m	c #111010",
"n	c #4C4B48",
"o	c #797773",
"p	c #84827D",
"q	c #343331",
"r	c #555350",
"s	c #989590",
"t	c #585653",
"u	c #131312",
"v	c #B7B3AD",
"w	c #1C1C1B",
"x	c #514F4C",
"y	c #C0BCB5",
"z	c #3D3C39",
"A	c #4C4A47",
"B	c #CBC7BF",
"C	c #A29F99",
"D	c #7D7D7D",
"E	c #454441",
"F	c #918E88",
"G	c #111110",
"H	c #C9C5BE",
"                ",
" .+@#$%& *=--;*>",
" ,')!~{> *]^/(*>",
" _:<[}|> *][12*>",
" 234536> *]789*>",
" 0ab6cd> *]efg*>",
" ******> ******>",
" >>>>>>> >>>>>>>",
"                ",
"h*> *ij'k*> *=%l",
"m9> *n)op*> *]qr",
"1s> *tu5v*> *]]*",
"wx> *y#zA*> *]]B",
"CaD *E1!F*> *]G{",
"**> **H0**> ****",
">>> >>>>>>> >>>>"};
