/* XPM */
static const char * wmlabel32_xpm[] = {
"32 32 76 1",
" 	c #FFFFFF",
".	c #000000",
"+	c #10ADE9",
"@	c #8F8F8F",
"#	c #AFAFAF",
"$	c #C1C1C1",
"%	c #8B8B8B",
"&	c #333333",
"*	c #606060",
"=	c #E4E4E4",
"-	c #3D3D3D",
";	c #686868",
">	c #68C7EB",
",	c #E5E5E5",
"'	c #5B5B5B",
")	c #111111",
"!	c #131313",
"~	c #545454",
"{	c #E3E3E3",
"]	c #7C7C7C",
"^	c #1D1D1D",
"/	c #525252",
"(	c #B0B0B0",
"_	c #2F2F2F",
":	c #161616",
"<	c #6F6F6F",
"[	c #C9C9C9",
"}	c #595959",
"|	c #C5C5C5",
"1	c #A4A4A4",
"2	c #818181",
"3	c #BEBEBE",
"4	c #101010",
"5	c #848484",
"6	c #7F7F7F",
"7	c #2E2E2E",
"8	c #181818",
"9	c #2FB7EB",
"0	c #484848",
"a	c #777777",
"b	c #8DC1D5",
"c	c #444444",
"d	c #858585",
"e	c #8A8A8A",
"f	c #424242",
"g	c #6B6B6B",
"h	c #272727",
"i	c #2B2B2B",
"j	c #3E3E3E",
"k	c #6C6C6C",
"l	c #67C5E9",
"m	c #6E6E6E",
"n	c #929292",
"o	c #D1D1D1",
"p	c #CACACA",
"q	c #303030",
"r	c #B5B5B5",
"s	c #383838",
"t	c #5E5E5E",
"u	c #5D5D5D",
"v	c #222222",
"w	c #DBDBDB",
"x	c #BEDEEA",
"y	c #616161",
"z	c #3F3F3F",
"A	c #585858",
"B	c #717171",
"C	c #BDBDBD",
"D	c #D0D0D0",
"E	c #BBBBBB",
"F	c #BFBFBF",
"G	c #DADADA",
"H	c #C0C0C0",
"I	c #C2C2C2",
"J	c #C8C8C8",
"K	c #BABABA",
"  ............................  ",
" .++++++++++++++++++++++++++++. ",
".++++++++++++++++++++++++++++++.",
".++++++++++++++++++++++++++++++.",
".++++++++++++++++++++++++++++++.",
".++++++++++++++++++++++++++++++.",
".++++++++++++++++++++++++++++++.",
".++++++++++++++++++++++++++++++.",
".++++++++++++++++++++++++++++++.",
".++++++++++++++++++++++++++++++.",
".++++++++++++++++++++++++++++++.",
".++++++++++++++++++++++++++++++.",
".++@#++++++++$%++++++++++++$%++.",
".++.&++++++++*.=+++++++++++*.=+.",
".++.-++++++++;.>+++++++++++;.,+.",
".++.-++')!~{+;.]^/+++(_:<++;.,+.",
".++.-++++[.}+;.|1.2+34@(.5+;.,+.",
".++.-++678.-+;.+9.0+a.b+.c+;.,+.",
".++.-+d.e+.-+;.++.f+g.hij<+;.,+.",
".++.-+k.{l.-+;.+|.m+n.o++p+;.,+.",
".++.q+r4sk.q+t.uvqw+xyzABe+t.{+.",
".++CD++oEoFD+GHI3w+++>JED++GK++.",
".++++++++++++++++++++++++++++++.",
".++++++++++++++++++++++++++++++.",
".++++++++++++++++++++++++++++++.",
".++++++++++++++++++++++++++++++.",
".++++++++++++++++++++++++++++++.",
".++++++++++++++++++++++++++++++.",
".++++++++++++++++++++++++++++++.",
".++++++++++++++++++++++++++++++.",
" .++++++++++++++++++++++++++++. ",
"  ............................  "};
