/* XPM */
static const char * wmlabel16_xpm[] = {
"16 16 24 1",
" 	c #FFFFFF",
".	c #000000",
"+	c #10ADE9",
"@	c #AFAFAF",
"#	c #8B8B8B",
"$	c #3D3D3D",
"%	c #A4A4A4",
"&	c #818181",
"*	c #BEBEBE",
"=	c #8F8F8F",
"-	c #858585",
";	c #8A8A8A",
">	c #424242",
",	c #6B6B6B",
"'	c #272727",
")	c #3E3E3E",
"!	c #303030",
"~	c #B5B5B5",
"{	c #383838",
"]	c #222222",
"^	c #DBDBDB",
"/	c #BEDEEA",
"(	c #3F3F3F",
"_	c #717171",
" .............. ",
".++++++++++++++.",
".++++++++++++++.",
".++++++++++++++.",
".++++++++++++++.",
".++++++++++++++.",
".+@++++#++++++#.",
".+$++++.++++++..",
".+$++.+.%&*=.+..",
".+$-;.+.+>,')+..",
".+!~{.+.]^/(_+..",
".++++++++++++++.",
".++++++++++++++.",
".++++++++++++++.",
".++++++++++++++.",
" .............. "};
