/* XPM */
static const char * wmlist16_xpm[] = {
"16 16 72 1",
" 	c #404040",
".	c #808080",
"+	c #BFBFBF",
"@	c #FFFFFF",
"#	c #3B3B3A",
"$	c #747371",
"%	c #71706D",
"&	c #6F6D6A",
"*	c #6D6C68",
"=	c #6D6B68",
"-	c #6C6A67",
";	c #6C6A66",
">	c #6B6965",
",	c #6A6864",
"'	c #666461",
")	c #605E5C",
"!	c #2E2D2C",
"~	c #767573",
"{	c #E4E2DD",
"]	c #DEDAD4",
"^	c #D9D5CE",
"/	c #D6D2CB",
"(	c #D4D0C8",
"_	c #D3CFC7",
":	c #BFBCB4",
"<	c #C6C2BB",
"[	c #D2CEC6",
"}	c #CFCCC4",
"|	c #CBC7C0",
"1	c #C3C0BA",
"2	c #B8B4AF",
"3	c #565553",
"4	c #3A3938",
"5	c #6F6E6B",
"6	c #696764",
"7	c #676562",
"8	c #656360",
"9	c #64625F",
"0	c #64635F",
"a	c #64625E",
"b	c #62605E",
"c	c #5C5B58",
"d	c #565653",
"e	c #292928",
"f	c #767574",
"g	c #E6E4E0",
"h	c #E0DDD7",
"i	c #DBD8D2",
"j	c #D8D5CE",
"k	c #D7D3CC",
"l	c #D6D2CA",
"m	c #C8C4BD",
"n	c #D0CCC5",
"o	c #D4D1C9",
"p	c #D2CFC7",
"q	c #C8C5BE",
"r	c #BCB9B3",
"s	c #595755",
"t	c #747472",
"u	c #E1DFD9",
"v	c #DBD7D0",
"w	c #D2CEC7",
"x	c #CFCBC4",
"y	c #CDCAC2",
"z	c #C6C3BC",
"A	c #CECAC2",
"B	c #CCC9C1",
"C	c #CAC6BF",
"D	c #C5C2BB",
"E	c #BEBBB5",
"F	c #B2AFAA",
"G	c #545351",
" .............. ",
"..+@@@@@@@@@@@@.",
"................",
"#$%&*=-;-;;>,')!",
"~{]^/(_:<_[}|123",
"45;6789990ab)cde",
"fghijklmnlop}qrs",
"tuvlwxymzABCDEFG",
"#$%&*=-;-;;>,')!",
"~{]^/(_:<_[}|123",
"45;6789990ab)cde",
"fghijklmnlop}qrs",
"tuvlwxymzABCDEFG",
"#$%&*=-;-;;>,')!",
"~{]^/(_:<_[}|123",
"45;6789990ab)cde"};
