/* XPM */
static const char * wmlist32_xpm[] = {
"32 32 83 1",
" 	c #000000",
".	c #FFFFFF",
"+	c #EDEBE8",
"@	c #EAE8E4",
"#	c #E7E5E1",
"$	c #E3E1DC",
"%	c #E0DED8",
"&	c #DFDBD6",
"*	c #DCD9D3",
"=	c #DBD8D2",
"-	c #DAD7D0",
";	c #DAD6D0",
">	c #D9D6CE",
",	c #D8D5CE",
"'	c #D8D4CD",
")	c #D8D4CE",
"!	c #D7D4CC",
"~	c #D6D2CB",
"{	c #D5D1CA",
"]	c #D4D0C8",
"^	c #D2CEC6",
"/	c #CFCBC4",
"(	c #CAC7C0",
"_	c #C4C0BA",
":	c #BDBAB4",
"<	c #B6B3AE",
"[	c #ECEAE7",
"}	c #E6E4E0",
"|	c #E3E0DB",
"1	c #DFDCD6",
"2	c #DCD8D2",
"3	c #D7D3CC",
"4	c #D3CFC7",
"5	c #CCC8C0",
"6	c #A29F99",
"7	c #BEBAB3",
"8	c #D2CEC7",
"9	c #D0CDC5",
"0	c #CFCBC3",
"a	c #CCCAC2",
"b	c #CAC6BF",
"c	c #C6C2BC",
"d	c #C2BFB8",
"e	c #BBB8B2",
"f	c #B5B2AD",
"g	c #ADAAA6",
"h	c #EBEAE6",
"i	c #E6E4DF",
"j	c #E2E0DA",
"k	c #D8D4CC",
"l	c #D6D2CA",
"m	c #D0CCC4",
"n	c #BEBBB4",
"o	c #B7B3AC",
"p	c #D1CDC5",
"q	c #CECAC2",
"r	c #CCC8C1",
"s	c #C9C5BE",
"t	c #C5C2BB",
"u	c #C0BDB7",
"v	c #BAB7B1",
"w	c #B4B0AC",
"x	c #ACAAA5",
"y	c #E7E4E0",
"z	c #DDDAD4",
"A	c #DAD6CF",
"B	c #D1CDC6",
"C	c #CCC9C2",
"D	c #CBC7C0",
"E	c #C9C6BF",
"F	c #C8C6BE",
"G	c #C8C4BE",
"H	c #C8C5BE",
"I	c #C9C6BE",
"J	c #C8C4BD",
"K	c #C7C4BD",
"L	c #C1BEB8",
"M	c #BFBCB6",
"N	c #BBB8B3",
"O	c #B6B4AE",
"P	c #B0AEA9",
"Q	c #AAA8A4",
"R	c #A5A3A0",
"                                ",
" .............................. ",
" .   .......................... ",
" .............................. ",
"                                ",
"................................",
"                                ",
" +@#$%&*=-;>,,''')''!!~{]^/(_:< ",
" [}|12-)3~{]4456744]8^90abcdefg ",
" hij12;k~l]44^mno8^^^pmqrstuvwx ",
" y%zAl]B/CDEFGHHHssIJKc_LMNOPQR ",
"                                ",
" +@#$%&*=-;>,,''')''!!~{]^/(_:< ",
" [}|12-)3~{]4456744]8^90abcdefg ",
" hij12;k~l]44^mno8^^^pmqrstuvwx ",
" y%zAl]B/CDEFGHHHssIJKc_LMNOPQR ",
"                                ",
" +@#$%&*=-;>,,''')''!!~{]^/(_:< ",
" [}|12-)3~{]4456744]8^90abcdefg ",
" hij12;k~l]44^mno8^^^pmqrstuvwx ",
" y%zAl]B/CDEFGHHHssIJKc_LMNOPQR ",
"                                ",
" +@#$%&*=-;>,,''')''!!~{]^/(_:< ",
" [}|12-)3~{]4456744]8^90abcdefg ",
" hij12;k~l]44^mno8^^^pmqrstuvwx ",
" y%zAl]B/CDEFGHHHssIJKc_LMNOPQR ",
"                                ",
" +@#$%&*=-;>,,''')''!!~{]^/(_:< ",
" [}|12-)3~{]4456744]8^90abcdefg ",
" hij12;k~l]44^mno8^^^pmqrstuvwx ",
" y%zAl]B/CDEFGHHHssIJKc_LMNOPQR ",
"                                "};
