/* XPM */
static const char * wmlines16_xpm[] = {
"16 16 2 1",
" 	c None",
".	c #592CDB",
"        .       ",
"..     ..       ",
"..     ..       ",
"..     ..       ",
"..     ..     ..",
"..     ..    ...",
"..     ..  ..  .",
"..      . ..  ..",
"..     ....   ..",
"..     ..     ..",
"..    ..      ..",
"..   ....     ..",
".. ..  ..     ..",
"....   ..     ..",
"...    .........",
".      ........."};
