/* XPM */
static const char * wmpanel32_xpm[] = {
"32 32 6 1",
" 	c None",
".	c #808080",
"+	c #D4D0D4",
"@	c #FFFFFF",
"#	c #0077A5",
"$	c #000000",
"...............................+",
".@@@@@@@@@@@@@@@@@@@@@@@@@@@@@.@",
".@############################.@",
".@############################.@",
".@############################.@",
".@############################.@",
"...........$$$$$$$$$...........@",
".@@@@@@@@@@@$$$$$$$@@@@@@@@@@@.@",
".@+++++++++++$$$$$++++++++++++.@",
".@++++++++++++$$$+++++++++++++.@",
".@+++++++++++++$++++++++++++++.@",
".@++++++++++++++++++++++++++++.@",
".@++++++++++++++++++++++++++++.@",
".@++++++++++++++++++++++++++++.@",
".@++++++++++++++++++++++++++++.@",
".@++++++++++++++++++++++++++++.@",
".@++++++++++++++++++++++++++++.@",
".@++++++++++++++++++++++++++++.@",
".@++++++++++++++++++++++++++++.@",
".@++++++++++++++++++++++++++++.@",
".@++++++++++++++++++++++++++++.@",
".@++++++++++++++++++++++++++++.@",
".@++++++++++++++++++++++++++++.@",
".@++++++++++++++++++++++++++++.@",
".@++++++++++++++++++++++++++++.@",
".@++++++++++++++++++++++++++++.@",
".@++++++++++++++++++++++++++++.@",
".@++++++++++++++++++++++++++++.@",
".@++++++++++++++++++++++++++++.@",
".@++++++++++++++++++++++++++++.@",
"...............................@",
"+@@@@@@@@@@@@@@@@@@@@@@@@@@@@@@@"};
