/* XPM */
static const char * wmpanel16_xpm[] = {
"16 16 6 1",
" 	c None",
".	c #808080",
"+	c #D4D0D4",
"@	c #FFFFFF",
"#	c #0077A5",
"$	c #000000",
"...............+",
".@@@@@@@@@@@@@.@",
".@############.@",
".@############.@",
"....$$$$$$$....@",
".@@@@$$$$$@@@@.@",
".@++++$$$+++++.@",
".@+++++$++++++.@",
".@++++++++++++.@",
".@++++++++++++.@",
".@++++++++++++.@",
".@++++++++++++.@",
".@++++++++++++.@",
".@++++++++++++.@",
"...............@",
"+@@@@@@@@@@@@@@@"};
