/* XPM */
static const char * wmslider32_xpm[] = {
"32 32 6 1",
" 	c #000000",
".	c #4763DC",
"+	c #2043DC",
"@	c #AAAAAA",
"#	c #FFFFFF",
"$	c #888888",
"                                ",
"                                ",
"                                ",
"                                ",
"                                ",
"                                ",
"                                ",
"                                ",
"                                ",
"                                ",
"                                ",
"                                ",
"                                ",
"           ....                 ",
"           .+++                 ",
" @@@@@@@@@@.+++@@@@@@@@@@@@@@#  ",
" @$$$$$$$$$.+++$$$$$$$$$$$$$$#  ",
" @$$$$$$$$$.+++$$$$$$$$$$$$$$#  ",
" @$$$$$$$$$.+++$$$$$$$$$$$$$$#  ",
" ##########.+++###############  ",
"           .+++                 ",
"           .+++                 ",
"                                ",
"                                ",
"                                ",
"                                ",
"                                ",
"                                ",
"                                ",
"                                ",
"                                ",
"                                "};
