/* XPM */
static const char * wmslider16_xpm[] = {
"16 16 24 1",
" 	c #000000",
".	c #121937",
"+	c #26346E",
"@	c #131A37",
"#	c #2A2A2A",
"$	c #575757",
"%	c #525F9A",
"&	c #1B3FDC",
"*	c #3A4C9A",
"=	c #737373",
"-	c #848484",
";	c #868686",
">	c #6976B1",
",	c #1E41DC",
"'	c #5364B1",
")	c #D2D2D2",
"!	c #D3D3D3",
"~	c #909DD8",
"{	c #7A8BD8",
"]	c #FFFFFF",
"^	c #202F6D",
"/	c #1F45EA",
"(	c #091C6D",
"_	c #010101",
"                ",
"                ",
"                ",
"                ",
"                ",
"                ",
"     .+@        ",
"#$$$$%&*$$$$$$= ",
"$-;;;>,';;;;;;) ",
"=)!!!~,{!!!!!!] ",
"     ^/(       _",
"                ",
"                ",
"                ",
"                ",
"                "};
