/* XPM */
static const char * wmswitcherpanel32_xpm[] = {
"32 32 5 1",
" 	c None",
".	c #FFFFFF",
"+	c #404040",
"@	c #D4D0C8",
"#	c #808080",
"                                ",
"                                ",
" ........................+      ",
" .@@@@@@@@@@@@@@@@@@@@@@#+      ",
" .@@@@@@@@@@@@@@@@@@@@@@#+      ",
" .@@@@@@@@@@@@@@@@@@@@@@#+..+   ",
" .@@@@@@@@@@@@@@@@@@@@@@#+@#+   ",
" .@@@@@@@@@@@@@@@@@@@@@@#+@#+   ",
" .@@@@@@@@@@@@@@@@@@@@@@#+@#+..+",
" .@@@@@@@@@@@@@@@@@@@@@@#+@#+@#+",
" .@@@@@@@@@@@@@@@@@@@@@@#+@#+@#+",
" .@@@@@@@@@@@@@@@@@@@@@@#+@#+@#+",
" .@@@@@@@@@@@@@@@@@@@@@@#+@#+@#+",
" .@@@@@@@@@@@@@@@@@@@@@@#+@#+@#+",
" .@@@@@@@@@@@@@@@@@@@@@@#+@#+@#+",
" .@@@@@@@@@@@@@@@@@@@@@@#+@#+@#+",
" .@@@@@@@@@@@@@@@@@@@@@@#+@#+@#+",
" .@@@@@@@@@@@@@@@@@@@@@@#+@#+@#+",
" .@@@@@@@@@@@@@@@@@@@@@@#+@#+@#+",
" .@@@@@@@@@@@@@@@@@@@@@@#+@#+@#+",
" .@@@@@@@@@@@@@@@@@@@@@@#+@#+@#+",
" .@@@@@@@@@@@@@@@@@@@@@@#+@#+@#+",
" .@@@@@@@@@@@@@@@@@@@@@@#+@#+@#+",
" .#######################+@#+@#+",
" +++++++++++++++++++++++++@#+@#+",
"    .@@@@@@@@@@@@@@@@@@@@@@#+@#+",
"    .#######################+@#+",
"    +++++++++++++++++++++++++@#+",
"       .@@@@@@@@@@@@@@@@@@@@@@#+",
"       .#######################+",
"       +++++++++++++++++++++++++",
"                                "};
