/* XPM */
static const char * wmswitcherpanel16_xpm[] = {
"16 16 5 1",
" 	c None",
".	c #D4D0C8",
"+	c #808080",
"@	c #404040",
"#	c #FFFFFF",
"........+@      ",
"........+@      ",
"........+@#+@   ",
"........+@.+@   ",
"........+@.+@   ",
"........+@.+@#+@",
"........+@.+@.+@",
"........+@.+@.+@",
"+++++++++@.+@.+@",
"@@@@@@@@@@.+@.+@",
"  #........+@.+@",
"  ++++++++++@.+@",
"  @@@@@@@@@@@.+@",
"     #........+@",
"     ++++++++++@",
"     @@@@@@@@@@@"};
