/* XPM */
static const char * wmtimeedit16_xpm[] = {
"16 16 28 1",
" 	c None",
".	c #000000",
"+	c #7F7F7F",
"@	c #FFFFFF",
"#	c #83AA59",
"$	c #7DA352",
"%	c #5E7F31",
"&	c #98B66E",
"*	c #86A95B",
"=	c #B9CBA3",
"-	c #EAEAEA",
";	c #80A255",
">	c #7FA157",
",	c #698C3D",
"'	c #7D9C52",
")	c #C8C8C8",
"!	c #D7D7D7",
"~	c #E5EBDD",
"{	c #67863C",
"]	c #5D5D5D",
"^	c #FBFCFA",
"/	c #537225",
"(	c #8EA669",
"_	c #A4B48C",
":	c #DFE4D6",
"<	c #9EAD85",
"[	c #486519",
"}	c #436014",
"                ",
"                ",
"                ",
"                ",
"................",
".++++++++++++++.",
".+@@@@@@@@@@@@@.",
".+@@@.@@@@@@@@@.",
".+@@@.@@@@@##@@.",
".+@@@.@@@$%&*%%.",
".+@@@@@@@%=@@-;>",
"........,'@@)!~%",
"        %{@@]@^%",
"        /(@@@@_%",
"         %%:@<%[",
"          }%%%% "};
