/* XPM */
static const char * wmtimeedit32_xpm[] = {
"32 32 133 2",
"  	c None",
". 	c #000000",
"+ 	c #7F7F7F",
"@ 	c #FFFFFF",
"# 	c #83AA59",
"$ 	c #80A756",
"% 	c #87AC5F",
"& 	c #B0C890",
"* 	c #C6D7AB",
"= 	c #DAE5C3",
"- 	c #DBE6C5",
"; 	c #C7D8AC",
"> 	c #B2CA93",
", 	c #88AD60",
"' 	c #7DA352",
") 	c #9AB876",
"! 	c #DBE6C4",
"~ 	c #B5CA90",
"{ 	c #98B66E",
"] 	c #87AA5C",
"^ 	c #86A95B",
"/ 	c #97B56D",
"( 	c #B1C88C",
"_ 	c #DCE6C4",
": 	c #9FBB7C",
"< 	c #799E4E",
"[ 	c #99B575",
"} 	c #CEDCB1",
"| 	c #8EAE63",
"1 	c #A8C08C",
"2 	c #D1DEC3",
"3 	c #ECF1E6",
"4 	c #EEF2E8",
"5 	c #D3DFC5",
"6 	c #ADC493",
"7 	c #8CAC60",
"8 	c #CBDBAD",
"9 	c #9CB879",
"0 	c #7B9F52",
"a 	c #C9D8AC",
"b 	c #83A458",
"c 	c #B9CBA3",
"d 	c #EAEAEA",
"e 	c #BACDA5",
"f 	c #80A255",
"g 	c #CAD8AB",
"h 	c #7FA157",
"i 	c #6F9343",
"j 	c #A5BC84",
"k 	c #98B36A",
"l 	c #A5BC8A",
"m 	c #C8C8C8",
"n 	c #5B5B5B",
"o 	c #F2F2F2",
"p 	c #B1C599",
"q 	c #92AE64",
"r 	c #A4BC83",
"s 	c #698C3D",
"t 	c #ADC288",
"u 	c #7D9C52",
"v 	c #DAE3CF",
"w 	c #D7D7D7",
"x 	c #E5EBDD",
"y 	c #78984D",
"z 	c #AFC48A",
"A 	c #648637",
"B 	c #A4BE76",
"C 	c #6C8D40",
"D 	c #F2F5EF",
"E 	c #FBFCFA",
"F 	c #66883A",
"G 	c #A2BD75",
"H 	c #5E7F31",
"I 	c #91AF5F",
"J 	c #67863C",
"K 	c #F2F4EE",
"L 	c #BCBCBC",
"M 	c #5D5D5D",
"N 	c #E4E4E4",
"O 	c #618134",
"P 	c #92B060",
"Q 	c #58782B",
"R 	c #82A151",
"S 	c #728E4A",
"T 	c #D8DFCD",
"U 	c #5F5F5F",
"V 	c #F9F9F9",
"W 	c #E2E7DA",
"X 	c #6C8943",
"Y 	c #83A351",
"Z 	c #537225",
"` 	c #719143",
" .	c #8EA669",
"..	c #9AAC7F",
"+.	c #A4B48C",
"@.	c #8AA366",
"#.	c #739243",
"$.	c #557328",
"%.	c #93AF68",
"&.	c #627E38",
"*.	c #A9B893",
"=.	c #ADBB98",
"-.	c #5E7A33",
";.	c #96B26E",
">.	c #557327",
",.	c #486519",
"'.	c #597827",
").	c #A8BE88",
"!.	c #5E7833",
"~.	c #98A87D",
"{.	c #DFE4D6",
"].	c #E3E7DC",
"^.	c #9EAD85",
"/.	c #59742D",
"(.	c #A9BD89",
"_.	c #5A7A29",
":.	c #547423",
"<.	c #A7BD88",
"[.	c #899F67",
"}.	c #59742E",
"|.	c #436014",
"1.	c #56712A",
"2.	c #859B62",
"3.	c #AABF8B",
"4.	c #567725",
"5.	c #3F5B10",
"6.	c #67853A",
"7.	c #9DB47C",
"8.	c #BCCEA4",
"9.	c #A1B781",
"0.	c #6A883E",
"a.	c #446214",
"b.	c #3C570C",
"                                                                ",
"                                                                ",
"                                                                ",
"                                                                ",
"                                                                ",
"                                                                ",
"                                                                ",
"                                                                ",
". . . . . . . . . . . . . . . . . . . . . . . . . . . . . . . . ",
". + + + + + + + + + + + + + + + + + + + + + + + + + + + + + + . ",
". + @ @ @ @ @ @ @ @ @ @ @ @ @ @ @ @ @ @ @ @ @ @ @ @ @ @ @ @ @ . ",
". + @ @ @ . @ @ @ @ @ @ @ @ @ @ @ @ @ @ @ @ @ @ @ @ @ @ @ @ @ . ",
". + @ @ @ . @ @ @ @ @ @ @ @ @ @ @ @ @ @ @ @ @ @ @ @ @ @ @ @ @ . ",
". + @ @ @ . @ @ @ @ @ @ @ @ @ @ @ @ @ @ @ @ @ @ @ @ @ @ @ @ @ . ",
". + @ @ @ . @ @ @ @ @ @ @ @ @ @ @ @ @ @ @ @ @ @ @ @ @ @ @ @ @ . ",
". + @ @ @ . @ @ @ @ @ @ @ @ @ @ @ @ @ @ @ @ @ @ @ @ @ @ @ @ @ . ",
". + @ @ @ . @ @ @ @ @ @ @ @ @ @ @ @ @ @ @ @ # # # # @ @ @ @ @ . ",
". + @ @ @ . @ @ @ @ @ @ @ @ @ @ @ @ @ $ % & * = - ; > , $ @ @ . ",
". + @ @ @ . @ @ @ @ @ @ @ @ @ @ @ @ ' ) ! ~ { ] ^ / ( _ : @ @ . ",
". + @ @ @ . @ @ @ @ @ @ @ @ @ @ @ < [ } | 1 2 3 4 5 6 7 8 9 < . ",
". + @ @ @ @ @ @ @ @ @ @ @ @ @ @ @ 0 a b c @ @ @ @ @ d e f g h . ",
". . . . . . . . . . . . . . . . i j k l @ @ @ @ @ m n o p q r i ",
"                                s t u v @ @ @ @ m n w @ x y z s ",
"                                A B C D @ @ @ m n w @ @ E F G A ",
"                                H I J K @ @ @ L M N @ @ E O P H ",
"                                Q R S T @ @ @ @ L U V @ W X Y Q ",
"                                Z `  ...@ @ @ @ @ d @ @ +.@.#.Z ",
"                                  $.%.&.*.@ @ @ @ @ @ =.-.;.>.  ",
"                                  ,.'.).!.~.{.@ @ ].^./.(._.,.  ",
"                                      :.<.[.}.|.|.1.2.3.4.      ",
"                                      5.|.6.7.8.8.9.0.a.5.      ",
"                                          b.b.b.b.b.b.          "};
