/* XPM */
static char * grandmaster_xpm[] = {
"32 16 25 1",
" 	c None",
".	c #F70000",
"+	c #F60000",
"@	c #F50000",
"#	c #F30000",
"$	c #F40000",
"%	c #F00000",
"&	c #EA0000",
"*	c #EF0000",
"=	c #ED0000",
"-	c #EE0000",
";	c #E10000",
">	c #EC0000",
",	c #EB0000",
"'	c #DD0000",
")	c #E40000",
"!	c #DA0000",
"~	c #DC0000",
"{	c #DB0000",
"]	c #D70000",
"^	c #E90000",
"/	c #D60000",
"(	c #F20000",
"_	c #F10000",
":	c #CB0000",
"                                ",
"   .........    ....+     ..... ",
"  ...........   .....     ..... ",
" .....+++@+.+   .....+   @..... ",
" ....           ......   ...... ",
"....            ......#  ...... ",
"....            ...+..+ @..$... ",
"....   @+@@@@   ...%@..#..@&... ",
"....   +.....   ...* .....= ... ",
"....   -%#...   ...= +.... ;... ",
"....@     ...   ...> ,...% '... ",
" ....%   )...   ...,  ...  !... ",
" +...........   ...&  ~{   ]... ",
"  $..........   ...^       /... ",
"    $@$$#(*!    _((;       :%%% ",
"                                "};
