/* XPM */
static const char * syncmaster_xpm[] = {
"32 16 20 1",
" 	c None",
".	c #880000",
"+	c #870000",
"@	c #860000",
"#	c #830000",
"$	c #820000",
"%	c #810000",
"&	c #7B0000",
"*	c #850000",
"=	c #800000",
"-	c #840000",
";	c #790000",
">	c #7F0000",
",	c #770000",
"'	c #7E0000",
")	c #760000",
"!	c #750000",
"~	c #740000",
"{	c #780000",
"]	c #6D0000",
"                                ",
"  ........    .....     .....   ",
" .........    .....     .....   ",
".....  +..    ......   +.....   ",
"....          ......   ......   ",
"....          ......@  ......   ",
"......++      ...+..+ +..@...   ",
" ........+    ...#+..@..+ ...   ",
"  ........@   ...$ .....% ...   ",
"     @.....   ...% +.... &...   ",
"       *...   ...= %...- ;...   ",
".+     *...   ...>  ...  ,...   ",
"..........*   ...'  ))   !...   ",
".........+    ...'       ~...   ",
"  ++++@@#     ---{       ]---   ",
"                                "};
