/* XPM */
static const char * home_hz_press_xpm[] = {
"32 32 5 1",
" 	c None",
".	c #404040",
"+	c #C3C3C3",
"@	c #3CD18C",
"#	c #00CB6E",
"                                ",
"                                ",
"                  ..            ",
"                 ...            ",
"                .. .            ",
"               ..  .            ",
"              .. + .            ",
"             .. ++ .            ",
"            .. +@+ .            ",
"           .. +@@+ ............ ",
"....      .. +@@@+            ..",
".  .     .. +@@#@+++++++++++++ .",
".++.    .. +@@##@@@@@@@@@@@@@+ .",
".@@.   .. +@@###############@+ .",
".##.  .. +@@################@+ .",
".##. .. +@@#################@+ .",
".##. . +@@##################@+ .",
".##. .. +@@#################@+ .",
".##.  .. +@@################@+ .",
".##.   .. +@@###############@+ .",
".##.    .. +@@##@@@@@@@@@@@@@+ .",
".@@.     .. +@@#@+++++++++++++ .",
".++.      .. +@@@+            ..",
".  .       .. +@@+ ............ ",
"....        .. +@+ .            ",
"             .. ++ .            ",
"              .. + .            ",
"               ..  .            ",
"                .. .            ",
"                 ...            ",
"                  ..            ",
"                                "};
