/* XPM */
static const char * backspace_xpm[] = {
"32 32 4 1",
" 	c None",
".	c #FFFFFF",
"+	c #000000",
"@	c #FBFBFB",
"                                ",
"                                ",
"                                ",
"                                ",
"                                ",
"                                ",
"                                ",
"                                ",
"                                ",
"                                ",
"                                ",
"    ........................... ",
"   .............................",
"  ...+..@.....+...+.............",
" ...+..@@......+.+..............",
"...+..@@@@@@@@@@+@@@@@@@@@@@....",
" ...+..@@......+.+..............",
"  ...+..@.....+...+.............",
"   .............................",
"    ........................... ",
"                                ",
"                                ",
"                                ",
"                                ",
"                                ",
"                                ",
"                                ",
"                                ",
"                                ",
"                                ",
"                                ",
"                                "};
