/* XPM */
static const char * down16_xpm[] = {
"16 16 24 1",
" 	c None",
".	c #404040",
"+	c #3B3B3B",
"@	c #2F2F2F",
"#	c #D2D2D2",
"$	c #ECECEC",
"%	c #EAEAEA",
"&	c #D0D0D0",
"*	c #F4F4F4",
"=	c #F3F3F3",
"-	c #BDBDBD",
";	c #353535",
">	c #D8D8D8",
",	c #E5E5E5",
"'	c #EEEEEE",
")	c #E8E8E8",
"!	c #DCDCDC",
"~	c #D6D6D6",
"{	c #E7E7E7",
"]	c #F2F2F2",
"^	c #EFEFEF",
"/	c #D9D9D9",
"(	c #D7D7D7",
"_	c #393939",
"                ",
"      ......    ",
"     +      .   ",
"     @#$$$% .   ",
"     @&*==$ .   ",
"     @&*==$ .   ",
"     @&*==$ .   ",
"     @&*==$ .   ",
"  ...@&*==$ ... ",
"  .   &*==$- # .",
"   ;>,$===')! . ",
"    ;~{*=]^/ .  ",
"     ;~{*^/ .   ",
"      ;~)/ .    ",
"       ;( .     ",
"        _.      "};
