/* XPM */
static const char * end_xpm[] = {
"32 32 5 1",
" 	c None",
".	c #404040",
"+	c #C3C3C3",
"@	c #E2E2E2",
"#	c #F3F3F3",
"         .............          ",
"        ..           ..         ",
"        . +++++++++++ .         ",
"        . +@@@@@@@@@+ .         ",
"        . +@#######@+ .         ",
"        . +@#######@+ .         ",
"        . +@#######@+ .         ",
"        . +@#######@+ .         ",
"        . +@#######@+ .         ",
"        . +@#######@+ .         ",
"        . +@#######@+ .         ",
"        . +@#######@+ .         ",
" ........ +@#######@+ ........  ",
" ..       +@#######@+       ..  ",
"  .. ++++++@#######@++++++ ..   ",
"   .. +@@@@@#######@@@@@+ ..    ",
"    .. +@@###########@@+ ..     ",
"     .. +@@#########@@+ ..      ",
"      .. +@@#######@@+ ..       ",
"       .. +@@#####@@+ ..        ",
"        .. +@@###@@+ ..         ",
"         .. +@@#@@+ ..          ",
"          .. +@@@+ ..           ",
"           .. +@+ ..            ",
"            .. + ..             ",
"             .. ..              ",
"              ...               ",
"                                ",
"       ...............          ",
"       . +@#######@+ .          ",
"       . +@#######@+ .          ",
"       ...............          "};
