/* XPM */
static const char * left16_xpm[] = {
"16 16 24 1",
" 	c None",
".	c #404040",
"+	c #353535",
"@	c #D8D8D8",
"#	c #D6D6D6",
"$	c #E5E5E5",
"%	c #2F2F2F",
"&	c #3B3B3B",
"*	c #E7E7E7",
"=	c #ECECEC",
"-	c #D0D0D0",
";	c #D2D2D2",
">	c #F4F4F4",
",	c #F3F3F3",
"'	c #393939",
")	c #D7D7D7",
"!	c #E8E8E8",
"~	c #D9D9D9",
"{	c #EFEFEF",
"]	c #F2F2F2",
"^	c #EEEEEE",
"/	c #EAEAEA",
"(	c #BDBDBD",
"_	c #DCDCDC",
"                ",
"                ",
"      ..        ",
"     + .        ",
"    +@ .        ",
"   +#$ %%%%%%&  ",
"  +#*=------; . ",
" +#*>,>>>>>>= . ",
"')!>,,,,,,,,= . ",
". ~{],,,,,,,= . ",
" . ~{^======/ . ",
"  . ~!(       . ",
"   . _ .......  ",
"    . ;.        ",
"     . .        ",
"      .         "};
