/* XPM */
static const char * right16_xpm[] = {
"16 16 24 1",
" 	c None",
".	c #404040",
"+	c #D2D2D2",
"@	c #DCDCDC",
"#	c #BDBDBD",
"$	c #E8E8E8",
"%	c #D9D9D9",
"&	c #EAEAEA",
"*	c #ECECEC",
"=	c #EEEEEE",
"-	c #EFEFEF",
";	c #F3F3F3",
">	c #F2F2F2",
",	c #F4F4F4",
"'	c #D7D7D7",
")	c #393939",
"!	c #E7E7E7",
"~	c #D6D6D6",
"{	c #353535",
"]	c #D0D0D0",
"^	c #3B3B3B",
"/	c #2F2F2F",
"(	c #E5E5E5",
"_	c #D8D8D8",
"         .      ",
"        . .     ",
"        .+ .    ",
"  ....... @ .   ",
" .       #$% .  ",
" . &******=-% . ",
" . *;;;;;;;>-% .",
" . *;;;;;;;;,$')",
" . *,,,,,,;,!~{ ",
" . +]]]]]]*!~{  ",
"  ^////// (~{   ",
"        . _{    ",
"        . {     ",
"        ..      ",
"                ",
"                "};
