/* XPM */
static const char * shifted_xpm[] = {
"32 32 4 1",
" 	c None",
".	c #FFFFFF",
"+	c #5BEB79",
"@	c #2AEF54",
"                                ",
"                                ",
"                                ",
"                                ",
"                                ",
"                                ",
"                .               ",
"               ...              ",
"              .. ..             ",
"             .. + ..            ",
"            .. +@+ ..           ",
"           .. +@@@+ ..          ",
"          .. +@@@@@+ ..         ",
"         .. +@@@@@@@+ ..        ",
"        .. +@@@@@@@@@+ ..       ",
"       .. +++++@@@@++++ ..      ",
"      ..      +@@@@+     ..     ",
"      ....... +@@@@+ ......     ",
"            . +@@@@+ .          ",
"            . +@@@@+ .          ",
"            . +@@@@+ .          ",
"            . +@@@@+ .          ",
"            . ++++++ .          ",
"            .        .          ",
"            ..........          ",
"                                ",
"                                ",
"                                ",
"                                ",
"                                ",
"                                ",
"                                "};
