/* XPM */
static const char * shiftedr_xpm[] = {
"32 32 4 1",
" 	c None",
".	c #404040",
"+	c #2DCF85",
"@	c #00CB6E",
"                                ",
"                                ",
"                                ",
"                                ",
"                                ",
"                                ",
"                                ",
"                     .          ",
"                    ...         ",
"                   .. ..        ",
"                  .. + ..       ",
"                 .. +@+ ..      ",
"                .. +@@@+ ..     ",
"               .. +@@@@@+ ..    ",
"              .. +@@@@@@@+ ..   ",
"             .. +@@@@@@@@@+ ..  ",
"            .. +++++@@@@++++ .. ",
"           ..      +@@@@+     ..",
"           ....... +@@@@+ ......",
"                 . +@@@@+ .     ",
"                 . +@@@@+ .     ",
"                 . +@@@@+ .     ",
"                 . +@@@@+ .     ",
"                 . ++++++ .     ",
"                 .        .     ",
"                 ..........     ",
"                                ",
"                                ",
"                                ",
"                                ",
"                                ",
"                                "};
