/* XPM */
static const char * trace_active_xpm[] = {
"40 42 42 1",
" 	c None",
".	c #FEFEFE",
"+	c #FFFFFF",
"@	c #FEFCFC",
"#	c #FDFBFB",
"$	c #FDF9F9",
"%	c #FDF7F7",
"&	c #FDF3F3",
"*	c #FDF5F5",
"=	c #FDEFEF",
"-	c #FDF1F1",
";	c #FCE8E8",
">	c #FCEAEA",
",	c #FCECEC",
"'	c #FCEEEE",
")	c #FBDDDD",
"!	c #FBE1E1",
"~	c #FBE3E3",
"{	c #FBD7D7",
"]	c #FBDBDB",
"^	c #F9D3D3",
"/	c #F9D5D5",
"(	c #FBE5E5",
"_	c #F9CBCB",
":	c #F9D1D1",
"<	c #F7C7C7",
"[	c #F7CBCB",
"}	c #F7C3C3",
"|	c #F6C2C2",
"1	c #F6BEBE",
"2	c #F4BCBC",
"3	c #F4B8B8",
"4	c #F2B6B6",
"5	c #F2B2B2",
"6	c #F1AFAF",
"7	c #EFADAD",
"8	c #EFA9A9",
"9	c #EEA8A8",
"0	c #ECA4A4",
"a	c #ECA2A2",
"b	c #EA9E9E",
"c	c #E99D9D",
"............++++++++++++++++++++++++++++",
".............+++++++++++++++++++++++++++",
"...............+++++++++++++++++++++++++",
".................+++++++++++++++++++++++",
".....................+++++++++++++++++++",
"@@@@@@@@@.@@..........++++++++++++++++++",
"@@@@@@@@@@@@@@@..........+++++++++++++++",
"#########@@@@@@@...........+++++++++++++",
"$$$##########@@@@@..........++++++++++++",
"%%$$%%$$$$#####@@@@@........++++++++++++",
"&&&&&****%$$#####@@@@........+++++++++++",
"======-&&&**%$$####@@@@.......++++++++++",
";;;;;>,''=-&&**%$$##@@@@.......+++++++++",
"))))!!~~;;,'=-&&*$$###@@@.......++++++++",
"{{{{{]])!!~;>,'=&**$###@@@@......+++++++",
"^^^^^^/{{{)!((;,'-&*$###@@@@.......+++++",
"______::^^/{])!(;,=&*%$###@@@......+++++",
"<<<<<<[[_::^/{])~;>=&&*$###@@@.....+++++",
"}}}}}}<<<[[_:^/{]!(,'-&*$###@@......++++",
"||||||}}}}<<[_:^/])~;,=&*$###@@......+++",
"1111111|||}}<<[_:/{)~;,-&%$##@@@.....+++",
"1111221111|}}}<<_:/]!~;'-*%$##@@@.....++",
"222333221111||}}<_:/]!~;'-*$##@@@......+",
"44444433322111|}<<[:/]!~;'&*$##@@@.....+",
"555444444332211|}}<[:/]!(>=&%###@@@....+",
"6655555444433211|}}<_:/]!;'-*$##@@@.....",
"66666665554443211|}}<_^{)~>=&*$##@@@....",
"777777776554443211|}<[:^{!;,-*$##@@@....",
"8888888877655443211|}<_:/]~>'&*$#@@@....",
"99998888877755443211}}<_^{!(,-*$##@@....",
"09999998888775443211|}<[:/]!;=&%$##@@...",
"000999999888765443211|}[:^{!('&*$##@@...",
"000009999988776544321|}<_:/)~,-*$##@@@..",
"0000000099988765544211}<[:/]!;=&%##@@@..",
"0000000009988877554321|}<_^{!;'&*$#@@@..",
"00aa000000998877654321|}<[:{)(,-*$#@@@..",
"aaaaa000009998876543211|<[:/)~,-*$##@@..",
"aaaaa000000998876544321|}[:/]~>-*$##@@..",
"aaaaaa00000998877554421|}[:^]~>=&%##@@..",
"baaaaaa0000099887554421|}<_^{~>=&%$#@@..",
"ccbbaaa0000099887654421|}<_^{!;'&%$#@@..",
"0cbbaaa0000099887654321|}<_^{)('&%$#@@.."};
