/* XPM */
static const char * folder_xpm[] = {
"32 26 59 1",
" 	c None",
".	c #FFFFFF",
"+	c #FFFDF9",
"@	c #FFE4B9",
"#	c #FFD69A",
"$	c #FFD699",
"%	c #FFE8C2",
"&	c #FFFBF6",
"*	c #FFAB22",
"=	c #FFA000",
"-	c #FF9F00",
";	c #FF9E00",
">	c #FFDA9E",
",	c #FFDBA2",
"'	c #FFDCA3",
")	c #FFC565",
"!	c #FFA405",
"~	c #FFAD0D",
"{	c #FFAB0B",
"]	c #FFDB88",
"^	c #FFE8AB",
"/	c #FFE7AA",
"(	c #FFE9AF",
"_	c #FFF8E3",
":	c #FFFFFD",
"<	c #FFC462",
"[	c #FFBF1D",
"}	c #FFCA28",
"|	c #FFCB29",
"1	c #FFC924",
"2	c #FFC922",
"3	c #FFD65E",
"4	c #FFFEFB",
"5	c #FFD16A",
"6	c #FFCA27",
"7	c #FFEDB9",
"8	c #FFD86A",
"9	c #FFDE7C",
"0	c #FFD868",
"a	c #FFDC74",
"b	c #FFD86B",
"c	c #FFDD77",
"d	c #FFDF7A",
"e	c #FFE185",
"f	c #FFDE79",
"g	c #FFE084",
"h	c #FFDF7E",
"i	c #FFE28A",
"j	c #FFECB5",
"k	c #FFEEBC",
"l	c #FFFEFA",
"m	c #FFDA66",
"n	c #FFC616",
"o	c #FFC822",
"p	c #FFDB69",
"q	c #FFF2CE",
"r	c #FFE593",
"s	c #FFE592",
"t	c #FFF3D4",
".+@#######$%....................",
"&*=--------;>...................",
",-=--------=;'..................",
")=!~~~~~~~~~~{]^^^^^^^^^^^^/(_:.",
"<[}|||||||||||122222222222222234",
"56}}}}}}}}}}}}}}}}}}}}}}}}}}}}67",
"8}}}}}}}}}}}}}}}}}}}}}}}}}}}}}69",
"0}}}}}}}}}}}}}}}}}}}}}}}}}}}}}6a",
"0}}}}}}}}}}}}}}}}}}}}}}}}}}}}}6a",
"b6}}}}}}}}}}}}}}}}}}}}}}}}}}}}6c",
"d6}}}}}}}}}}}}}}}}}}}}}}}}}}}}6e",
"f6}}}}}}}}}}}}}}}}}}}}}}}}}}}}6g",
"f6}}}}}}}}}}}}}}}}}}}}}}}}}}}}6g",
"f6}}}}}}}}}}}}}}}}}}}}}}}}}}}}6g",
"f6}}}}}}}}}}}}}}}}}}}}}}}}}}}}6g",
"f6}}}}}}}}}}}}}}}}}}}}}}}}}}}}6g",
"f6}}}}}}}}}}}}}}}}}}}}}}}}}}}}6g",
"f6}}}}}}}}}}}}}}}}}}}}}}}}}}}}6g",
"f6}}}}}}}}}}}}}}}}}}}}}}}}}}}}6g",
"f6}}}}}}}}}}}}}}}}}}}}}}}}}}}}6g",
"f6}}}}}}}}}}}}}}}}}}}}}}}}}}}}6g",
"f6}}}}}}}}}}}}}}}}}}}}}}}}}}}}6g",
"h6}}}}}}}}}}}}}}}}}}}}}}}}}}}}6i",
"j6}}}}}}}}}}}}}}}}}}}}}}}}}}}}6k",
"lmnoooooooooooooooooooooooooonp4",
"..qrssssssssssssssssssssssssrt.."};
