/* XPM */
static const char * pageup_press_xpm[] = {
"32 32 7 1",
" 	c None",
".	c #404040",
"+	c #C3C3C3",
"@	c #3CD18C",
"#	c #00CB6E",
"$	c #E2E2E2",
"%	c #F3F3F3",
"                                ",
"                                ",
"             ..                 ",
"            ...                 ",
"           .. .                 ",
"          ..  .                 ",
"         .. + .                 ",
"        .. ++ .                 ",
"       .. +@+ .                 ",
"      .. +@@+ ............  ....",
"     .. +@@@+            .. .  .",
"    .. +@@#@+++++++++++++ . .++.",
"   .. +@@##@@@@@@@@@@@@@+ . .$$.",
"  .. +@@###############@+ . .%%.",
" .. +@@################@+ . .%%.",
".. +@@#################@+ . .%%.",
". +@@##################@+ . .%%.",
".. +@@#################@+ . .%%.",
" .. +@@################@+ . .%%.",
"  .. +@@###############@+ . .%%.",
"   .. +@@##@@@@@@@@@@@@@+ . .$$.",
"    .. +@@#@+++++++++++++ . .++.",
"     .. +@@@+            .. .  .",
"      .. +@@+ ............  ....",
"       .. +@+ .                 ",
"        .. ++ .                 ",
"         .. + .                 ",
"          ..  .                 ",
"           .. .                 ",
"            ...                 ",
"             ..                 ",
"                                "};
